{"title":"Game.of.Thrones.S02E08.HDTV.XviD-Atilla82","uid":7286783,"size":368247342,"categoryP":"video","categoryS":"tv_shows","magnet":"?xt=urn:btih:ebaf232e4a9782d151f06368a5a71b4a462c87c2&amp;dn=Game.of.Thrones.S02E08.HDTV.XviD-Atilla82&amp;tr=udp%3A%2F%2Ftracker.openbittorrent.com%3A80&amp;tr=udp%3A%2F%2Fopen.demonii.com%3A1337&amp;tr=udp%3A%2F%2Ftracker.coppersurfer.tk%3A6969&amp;tr=udp%3A%2F%2Fexodus.desync.com%3A6969","seeders":1,"leechers":0,"uploader":"Atilla82","files":3,"time":1337609819,"description":"Game.of.Thrones.S02E08.HDTV.XviD-Atilla82\n\n\n\nscreenshots included in torrent\n\n\n\n\nGame of Thrones (2012)\nwww.imdb.com/title/tt0944947/\n \n\n\nSeven noble families fight for control of the mythical land of Westeros.\n\nlanguage: English\n\n\n\n\nGeneral\nComplete name : Game.of.Thrones.S02E08.HDTV.XviD-Atilla82.avi\nFormat : AVI\nFormat/Info : Audio Video Interleave\nFile size : 351 MiB\nDuration : 54mn 59s\nOverall bit rate : 892 Kbps\nWriting application : Lavf52.61.0\n\nVideo\nID : 0\nFormat : MPEG-4 Visual\nFormat profile : Advanced Simple@L5\nFormat settings, BVOP : No\nFormat settings, QPel : Yes\nFormat settings, GMC : No warppoints\nFormat settings, Matrix : Default (H.263)\nCodec ID : XVID\nCodec ID/Hint : XviD\nDuration : 54mn 59s\nBit rate : 752 Kbps\nWidth : 680 pixels\nHeight : 380 pixels\nDisplay aspect ratio : 16:9\nFrame rate : 23.976 fps\nColor space : YUV\nChroma subsampling : 4:2:0\nBit depth : 8 bits\nScan type : Progressive\nCompression mode : Lossy\nBits/(Pixel*Frame) : 0.121\nStream size : 296 MiB (84%)\nWriting library : XviD 64\n\nAudio\nID : 1\nFormat : MPEG Audio\nFormat version : Version 1\nFormat profile : Layer 3\nCodec ID : 55\nCodec ID/Hint : MP3\nDuration : 54mn 59s\nBit rate mode : Constant\nBit rate : 128 Kbps\nChannel(s) : 2 channels\nSampling rate : 48.0 KHz\nCompression mode : Lossy\nStream size : 50.3 MiB (14%)\nAlignment : Aligned on interleaves\nInterleave, duration : 24 ms (0.58 video frame)\n\n\n\nSCREENSHOTS &lt;a href=&quot;\nhttp://www.pohrani.com/f/3P/wJ/24pVfqKz/screenshots.jpg&quot; rel=&quot;nofollow&quot; target=&quot;_NEW&quot;&gt;\nhttp://www.pohrani.com/f/3P/wJ/24pVfqKz/screenshots.jpg&lt;/a&gt;\n","torrent":{"xt":"urn:btih:ebaf232e4a9782d151f06368a5a71b4a462c87c2","amp;dn":"Game.of.Thrones.S02E08.HDTV.XviD-Atilla82","amp;tr":["udp%3A%2F%2Ftracker.openbittorrent.com%3A80","udp%3A%2F%2Fopen.demonii.com%3A1337","udp%3A%2F%2Ftracker.coppersurfer.tk%3A6969","udp%3A%2F%2Fexodus.desync.com%3A6969"],"infoHash":"ebaf232e4a9782d151f06368a5a71b4a462c87c2","infoHashBuffer":{"type":"Buffer","data":[235,175,35,46,74,151,130,209,81,240,99,104,165,167,27,74,70,44,135,194]},"announce":[],"urlList":[]}}